<svg viewBox="0 0 40 70" xmlns="http://www.w3.org/2000/svg">
  <rect x="4" y="4" width="32" height="62" rx="7" fill="#7ba7c8" stroke="#1a2a3a" stroke-width="1.5"/>
  <path d="M9 12 L31 12 L29 23 L11 23 Z" fill="#cce8f8" stroke="#1a2a3a" stroke-width="0.8" opacity="0.9"/>
  <rect x="10" y="23" width="20" height="24" rx="2" fill="#6090b0" stroke="#1a2a3a" stroke-width="0.5"/>
  <path d="M11 47 L29 47 L31 57 L9 57 Z" fill="#cce8f8" stroke="#1a2a3a" stroke-width="0.8" opacity="0.9"/>
  <line x1="4" y1="35" x2="36" y2="35" stroke="#1a2a3a" stroke-width="0.6" opacity="0.4"/>
  <rect x="0" y="9" width="5" height="11" rx="2" fill="#111" stroke="#333" stroke-width="0.5"/>
  <rect x="35" y="9" width="5" height="11" rx="2" fill="#111" stroke="#333" stroke-width="0.5"/>
  <rect x="0" y="50" width="5" height="11" rx="2" fill="#111" stroke="#333" stroke-width="0.5"/>
  <rect x="35" y="50" width="5" height="11" rx="2" fill="#111" stroke="#333" stroke-width="0.5"/>
  <rect x="6" y="4" width="9" height="4" rx="1.5" fill="#fffaaa" stroke="#c8a000" stroke-width="0.5"/>
  <rect x="25" y="4" width="9" height="4" rx="1.5" fill="#fffaaa" stroke="#c8a000" stroke-width="0.5"/>
  <rect x="6" y="62" width="9" height="4" rx="1.5" fill="#ff5555" stroke="#aa0000" stroke-width="0.5"/>
  <rect x="25" y="62" width="9" height="4" rx="1.5" fill="#ff5555" stroke="#aa0000" stroke-width="0.5"/>
</svg>
