<svg viewBox="0 0 36 65" xmlns="http://www.w3.org/2000/svg">
  <!-- hatchback: techo más corto, trasera casi vertical -->
  <rect x="3" y="4" width="30" height="57" rx="8" fill="#a0c0a0" stroke="#1a2a3a" stroke-width="1.5"/>
  <path d="M8 12 L28 12 L27 22 L9 22 Z" fill="#d0f0d0" stroke="#1a2a3a" stroke-width="0.8"/>
  <rect x="9" y="22" width="18" height="18" rx="2" fill="#78a878" stroke="#1a2a3a" stroke-width="0.5"/>
  <!-- rear hatch window — casi cuadrada -->
  <rect x="9" y="40" width="18" height="13" rx="2" fill="#d0f0d0" stroke="#1a2a3a" stroke-width="0.8"/>
  <line x1="3" y1="33" x2="33" y2="33" stroke="#1a2a3a" stroke-width="0.6" opacity="0.35"/>
  <rect x="0" y="9" width="4" height="10" rx="2" fill="#111" stroke="#333" stroke-width="0.5"/>
  <rect x="32" y="9" width="4" height="10" rx="2" fill="#111" stroke="#333" stroke-width="0.5"/>
  <rect x="0" y="47" width="4" height="10" rx="2" fill="#111" stroke="#333" stroke-width="0.5"/>
  <rect x="32" y="47" width="4" height="10" rx="2" fill="#111" stroke="#333" stroke-width="0.5"/>
  <rect x="5" y="4" width="8" height="4" rx="1.5" fill="#fffaaa" stroke="#c8a000" stroke-width="0.5"/>
  <rect x="23" y="4" width="8" height="4" rx="1.5" fill="#fffaaa" stroke="#c8a000" stroke-width="0.5"/>
  <rect x="5" y="57" width="8" height="4" rx="1.5" fill="#ff5555" stroke="#aa0000" stroke-width="0.5"/>
  <rect x="23" y="57" width="8" height="4" rx="1.5" fill="#ff5555" stroke="#aa0000" stroke-width="0.5"/>
</svg>
