<svg viewBox="0 0 40 70" xmlns="http://www.w3.org/2000/svg">
  <rect x="4" y="4" width="32" height="62" rx="7" fill="#9ab8d0" stroke="#1a2a3a" stroke-width="1.5"/>
  <path d="M9 12 L31 12 L29 24 L11 24 Z" fill="#d8eef8" stroke="#1a2a3a" stroke-width="0.8"/>
  <rect x="10" y="24" width="20" height="22" rx="2" fill="#7898b8" stroke="#1a2a3a" stroke-width="0.5"/>
  <path d="M11 46 L29 46 L31 57 L9 57 Z" fill="#d8eef8" stroke="#1a2a3a" stroke-width="0.8"/>
  <line x1="4" y1="35" x2="36" y2="35" stroke="#1a2a3a" stroke-width="0.6" opacity="0.35"/>
  <rect x="0" y="9" width="5" height="11" rx="2" fill="#111" stroke="#333" stroke-width="0.5"/>
  <rect x="35" y="9" width="5" height="11" rx="2" fill="#111" stroke="#333" stroke-width="0.5"/>
  <rect x="0" y="50" width="5" height="11" rx="2" fill="#111" stroke="#333" stroke-width="0.5"/>
  <rect x="35" y="50" width="5" height="11" rx="2" fill="#111" stroke="#333" stroke-width="0.5"/>
  <rect x="6" y="4" width="9" height="4" rx="1.5" fill="#fffaaa" stroke="#c8a000" stroke-width="0.5"/>
  <rect x="25" y="4" width="9" height="4" rx="1.5" fill="#fffaaa" stroke="#c8a000" stroke-width="0.5"/>
  <rect x="6" y="62" width="9" height="4" rx="1.5" fill="#ff5555" stroke="#aa0000" stroke-width="0.5"/>
  <rect x="25" y="62" width="9" height="4" rx="1.5" fill="#ff5555" stroke="#aa0000" stroke-width="0.5"/>
  <!-- door handle hints -->
  <rect x="4" y="28" width="3" height="5" rx="1" fill="#5a80a0" stroke="none"/>
  <rect x="33" y="28" width="3" height="5" rx="1" fill="#5a80a0" stroke="none"/>
</svg>
