<svg viewBox="0 0 36 65" xmlns="http://www.w3.org/2000/svg">
  <rect x="3" y="3" width="30" height="59" rx="9" fill="#88bbd8" stroke="#1a2a3a" stroke-width="1.5"/>
  <path d="M8 11 L28 11 L27 22 L9 22 Z" fill="#d0eef8" stroke="#1a2a3a" stroke-width="0.8"/>
  <rect x="9" y="22" width="18" height="20" rx="2" fill="#6fa0c0" stroke="#1a2a3a" stroke-width="0.5"/>
  <path d="M9 42 L27 42 L28 53 L8 53 Z" fill="#d0eef8" stroke="#1a2a3a" stroke-width="0.8"/>
  <rect x="0" y="8" width="4" height="10" rx="2" fill="#111" stroke="#333" stroke-width="0.5"/>
  <rect x="32" y="8" width="4" height="10" rx="2" fill="#111" stroke="#333" stroke-width="0.5"/>
  <rect x="0" y="47" width="4" height="10" rx="2" fill="#111" stroke="#333" stroke-width="0.5"/>
  <rect x="32" y="47" width="4" height="10" rx="2" fill="#111" stroke="#333" stroke-width="0.5"/>
  <rect x="5" y="3" width="8" height="4" rx="1.5" fill="#fffaaa" stroke="#c8a000" stroke-width="0.5"/>
  <rect x="23" y="3" width="8" height="4" rx="1.5" fill="#fffaaa" stroke="#c8a000" stroke-width="0.5"/>
  <rect x="5" y="58" width="8" height="4" rx="1.5" fill="#ff5555" stroke="#aa0000" stroke-width="0.5"/>
  <rect x="23" y="58" width="8" height="4" rx="1.5" fill="#ff5555" stroke="#aa0000" stroke-width="0.5"/>
</svg>
