<svg viewBox="0 0 50 70" xmlns="http://www.w3.org/2000/svg">
  <!-- Minivan: cuerpo largo y alto, puerta corredera lateral visible -->
  <rect x="4" y="3" width="42" height="64" rx="5" fill="#c8a878" stroke="#1a2a3a" stroke-width="1.5"/>
  <path d="M8 10 L42 10 L41 20 L9 20 Z" fill="#eeddc8" stroke="#1a2a3a" stroke-width="0.8"/>
  <rect x="9" y="20" width="32" height="30" rx="2" fill="#b09060" stroke="#1a2a3a" stroke-width="0.5"/>
  <path d="M9 50 L41 50 L42 60 L8 60 Z" fill="#eeddc8" stroke="#1a2a3a" stroke-width="0.8"/>
  <!-- puerta corredera derecha (línea característica) -->
  <line x1="28" y1="20" x2="28" y2="50" stroke="#1a2a3a" stroke-width="0.8" opacity="0.5"/>
  <!-- riel de puerta corredera -->
  <line x1="29" y1="28" x2="42" y2="28" stroke="#1a2a3a" stroke-width="0.4" opacity="0.4"/>
  <!-- división de filas -->
  <line x1="4" y1="35" x2="46" y2="35" stroke="#1a2a3a" stroke-width="0.6" opacity="0.35"/>
  <rect x="0" y="8" width="6" height="12" rx="2" fill="#111" stroke="#333" stroke-width="0.5"/>
  <rect x="44" y="8" width="6" height="12" rx="2" fill="#111" stroke="#333" stroke-width="0.5"/>
  <rect x="0" y="50" width="6" height="12" rx="2" fill="#111" stroke="#333" stroke-width="0.5"/>
  <rect x="44" y="50" width="6" height="12" rx="2" fill="#111" stroke="#333" stroke-width="0.5"/>
  <rect x="7" y="3" width="12" height="4" rx="1.5" fill="#fffaaa" stroke="#c8a000" stroke-width="0.5"/>
  <rect x="31" y="3" width="12" height="4" rx="1.5" fill="#fffaaa" stroke="#c8a000" stroke-width="0.5"/>
  <rect x="7" y="63" width="12" height="4" rx="1.5" fill="#ff5555" stroke="#aa0000" stroke-width="0.5"/>
  <rect x="31" y="63" width="12" height="4" rx="1.5" fill="#ff5555" stroke="#aa0000" stroke-width="0.5"/>
</svg>
